G04*
G04 #@! TF.GenerationSoftware,Altium Limited,Altium Designer,18.0.7 (293)*
G04*
G04 Layer_Color=128*
%FSLAX25Y25*%
%MOIN*%
G70*
G01*
G75*
%ADD39C,0.00200*%
D39*
X393750Y268000D02*
X397250D01*
X395500Y266250D02*
Y269750D01*
X373750Y268000D02*
X377250D01*
X375500Y266250D02*
Y269750D01*
X303400Y246500D02*
X306600D01*
X305000Y244900D02*
Y248100D01*
X293400Y246500D02*
X296600D01*
X295000Y244900D02*
Y248100D01*
X393450Y384000D02*
X396550D01*
X395000Y382450D02*
Y385550D01*
X358450Y384000D02*
X361550D01*
X360000Y382450D02*
Y385550D01*
X419400Y375000D02*
X422600D01*
X421000Y373400D02*
Y376600D01*
X409400Y375000D02*
X412600D01*
X411000Y373400D02*
Y376600D01*
X438950Y385500D02*
X442050D01*
X440500Y383950D02*
Y387050D01*
X473950Y385500D02*
X477050D01*
X475500Y383950D02*
Y387050D01*
X461900Y411000D02*
X465100D01*
X463500Y409400D02*
Y412600D01*
X451900Y411000D02*
X455100D01*
X453500Y409400D02*
Y412600D01*
X374900Y412500D02*
X378100D01*
X376500Y410900D02*
Y414100D01*
X364900Y412500D02*
X368100D01*
X366500Y410900D02*
Y414100D01*
X311950Y383500D02*
X315050D01*
X313500Y381950D02*
Y385050D01*
X346950Y383500D02*
X350050D01*
X348500Y381950D02*
Y385050D01*
X321400Y416000D02*
X324600D01*
X323000Y414400D02*
Y417600D01*
X311400Y416000D02*
X314600D01*
X313000Y414400D02*
Y417600D01*
X517900Y407500D02*
X521100D01*
X519500Y405900D02*
Y409100D01*
X507900Y407500D02*
X511100D01*
X509500Y405900D02*
Y409100D01*
X521950Y381000D02*
X525050D01*
X523500Y379450D02*
Y382550D01*
X486950Y381000D02*
X490050D01*
X488500Y379450D02*
Y382550D01*
X412500Y311000D02*
X417500D01*
X415000Y308500D02*
Y313500D01*
X437500Y311000D02*
X442500D01*
X440000Y308500D02*
Y313500D01*
X422500Y331000D02*
X427500D01*
X425000Y328500D02*
Y333500D01*
X559900Y373000D02*
X563100D01*
X561500Y371400D02*
Y374600D01*
X549900Y373000D02*
X553100D01*
X551500Y371400D02*
Y374600D01*
X270400Y381000D02*
X273600D01*
X272000Y379400D02*
Y382600D01*
X260400Y381000D02*
X263600D01*
X262000Y379400D02*
Y382600D01*
X368950Y345000D02*
X372050D01*
X370500Y343450D02*
Y346550D01*
X358950Y345000D02*
X362050D01*
X360500Y343450D02*
Y346550D01*
X348950Y345000D02*
X352050D01*
X350500Y343450D02*
Y346550D01*
X338950Y345000D02*
X342050D01*
X340500Y343450D02*
Y346550D01*
X328950Y345000D02*
X332050D01*
X330500Y343450D02*
Y346550D01*
X318950Y345000D02*
X322050D01*
X320500Y343450D02*
Y346550D01*
X308950Y345000D02*
X312050D01*
X310500Y343450D02*
Y346550D01*
X298950Y345000D02*
X302050D01*
X300500Y343450D02*
Y346550D01*
X368950Y315000D02*
X372050D01*
X370500Y313450D02*
Y316550D01*
X358950Y315000D02*
X362050D01*
X360500Y313450D02*
Y316550D01*
X348950Y315000D02*
X352050D01*
X350500Y313450D02*
Y316550D01*
X338950Y315000D02*
X342050D01*
X340500Y313450D02*
Y316550D01*
X328950Y315000D02*
X332050D01*
X330500Y313450D02*
Y316550D01*
X318950Y315000D02*
X322050D01*
X320500Y313450D02*
Y316550D01*
X308950Y315000D02*
X312050D01*
X310500Y313450D02*
Y316550D01*
X298950Y315000D02*
X302050D01*
X300500Y313450D02*
Y316550D01*
X455950Y279500D02*
X459050D01*
X457500Y277950D02*
Y281050D01*
X445950Y279500D02*
X449050D01*
X447500Y277950D02*
Y281050D01*
X435950Y279500D02*
X439050D01*
X437500Y277950D02*
Y281050D01*
X425950Y279500D02*
X429050D01*
X427500Y277950D02*
Y281050D01*
X455950Y249500D02*
X459050D01*
X457500Y247950D02*
Y251050D01*
X445950Y249500D02*
X449050D01*
X447500Y247950D02*
Y251050D01*
X435950Y249500D02*
X439050D01*
X437500Y247950D02*
Y251050D01*
X425950Y249500D02*
X429050D01*
X427500Y247950D02*
Y251050D01*
X471450Y281500D02*
X474550D01*
X473000Y279950D02*
Y283050D01*
X471450Y246500D02*
X474550D01*
X473000Y244950D02*
Y248050D01*
X522450Y360500D02*
X525550D01*
X524000Y358950D02*
Y362050D01*
X487450Y360500D02*
X490550D01*
X489000Y358950D02*
Y362050D01*
X579400Y327500D02*
X582600D01*
X581000Y325900D02*
Y329100D01*
X569400Y327500D02*
X572600D01*
X571000Y325900D02*
Y329100D01*
X254400Y328500D02*
X257600D01*
X256000Y326900D02*
Y330100D01*
X244400Y328500D02*
X247600D01*
X246000Y326900D02*
Y330100D01*
X312950Y290500D02*
X316050D01*
X314500Y288950D02*
Y292050D01*
X347950Y290500D02*
X351050D01*
X349500Y288950D02*
Y292050D01*
X399950Y230000D02*
X403050D01*
X401500Y228450D02*
Y231550D01*
X364950Y230000D02*
X368050D01*
X366500Y228450D02*
Y231550D01*
X278400Y289500D02*
X281600D01*
X280000Y287900D02*
Y291100D01*
X268400Y289500D02*
X271600D01*
X270000Y287900D02*
Y291100D01*
X553900Y283500D02*
X557100D01*
X555500Y281900D02*
Y285100D01*
X543900Y283500D02*
X547100D01*
X545500Y281900D02*
Y285100D01*
X312950Y280500D02*
X316050D01*
X314500Y278950D02*
Y282050D01*
X347950Y280500D02*
X351050D01*
X349500Y278950D02*
Y282050D01*
X435100Y231500D02*
X438900D01*
X437000Y229600D02*
Y233400D01*
X455100Y231500D02*
X458900D01*
X457000Y229600D02*
Y233400D01*
X445100Y231500D02*
X448900D01*
X447000Y229600D02*
Y233400D01*
X522900Y241500D02*
X526100D01*
X524500Y239900D02*
Y243100D01*
X512900Y241500D02*
X516100D01*
X514500Y239900D02*
Y243100D01*
X312950Y270500D02*
X316050D01*
X314500Y268950D02*
Y272050D01*
X347950Y270500D02*
X351050D01*
X349500Y268950D02*
Y272050D01*
X331900Y212500D02*
X335100D01*
X333500Y210900D02*
Y214100D01*
X321900Y212500D02*
X325100D01*
X323500Y210900D02*
Y214100D01*
X497400Y203500D02*
X500600D01*
X499000Y201900D02*
Y205100D01*
X487400Y203500D02*
X490600D01*
X489000Y201900D02*
Y205100D01*
X434450Y182500D02*
X437550D01*
X436000Y180950D02*
Y184050D01*
X399450Y182500D02*
X402550D01*
X401000Y180950D02*
Y184050D01*
X459900Y172000D02*
X463100D01*
X461500Y170400D02*
Y173600D01*
X449900Y172000D02*
X453100D01*
X451500Y170400D02*
Y173600D01*
X370900Y175500D02*
X374100D01*
X372500Y173900D02*
Y177100D01*
X360900Y175500D02*
X364100D01*
X362500Y173900D02*
Y177100D01*
X407950Y203000D02*
X411050D01*
X409500Y201450D02*
Y204550D01*
X372950Y203000D02*
X376050D01*
X374500Y201450D02*
Y204550D01*
X414900Y144000D02*
X418100D01*
X416500Y142400D02*
Y145600D01*
X404900Y144000D02*
X408100D01*
X406500Y142400D02*
Y145600D01*
M02*
