M48
;Layer_Color=9474304
;FILE_FORMAT=2:4
INCH,TZ
;TYPE=PLATED
T1F00S00C0.0310
T2F00S00C0.0320
T3F00S00C0.0350
T4F00S00C0.0380
%
T01
X47300Y24650
Y28150
X45750Y27950
X44750
X43750
X42750
Y24950
X43750
X44750
X45750
X40150Y23000
X36650
X37450Y20300
X40950
X40100Y18250
X43600
X34950Y27050
Y28050
Y29050
X31450
Y28050
Y27050
X31050Y31500
X30050
Y34500
X31050
X32050
X33050
X34050
X35050
X36050
X37050
Y31500
X36050
X35050
X34050
X33050
X32050
X31350Y38350
X34850
X36000Y38400
X39500
X44050Y38550
X47550
X48850Y38100
X48900Y36050
X52400
X52350Y38100
T02
X40650Y14400
X41650
X48900Y20350
X49900
X51450Y24150
X52450
X54550Y28350
X55550
X46150Y17200
X45150
X37250Y17550
X36250
X33350Y21250
X32350
X30500Y24650
X29500
X28000Y28950
X27000
X25600Y32850
X24600
X26200Y38100
X27200
X31300Y41600
X32300
X36650Y41250
X37650
X41100Y37500
X42100
X45350Y41100
X46350
X50950Y40750
X51950
X55150Y37300
X56150
X57100Y32750
X58100
T03
X37550Y26800
X39550
T04
X43700Y23150
X44700
X45700
M30
