G04*
G04 #@! TF.GenerationSoftware,Altium Limited,Altium Designer,18.0.7 (293)*
G04*
G04 Layer_Color=2752767*
%FSLAX25Y25*%
%MOIN*%
G70*
G01*
G75*
%ADD39C,0.00200*%
%ADD40C,0.00267*%
D39*
X394700Y267200D02*
Y268800D01*
X396300D01*
Y267200D01*
X394700D01*
X374700D02*
Y268800D01*
X376300D01*
Y267200D01*
X374700D01*
X395000Y383200D02*
X394200Y384800D01*
X395800D01*
X395000Y383200D01*
X360000D02*
X359200Y384800D01*
X360800D01*
X360000Y383200D01*
X440500Y384700D02*
X439700Y386300D01*
X441300D01*
X440500Y384700D01*
X475500D02*
X474700Y386300D01*
X476300D01*
X475500Y384700D01*
X313500Y382700D02*
X312700Y384300D01*
X314300D01*
X313500Y382700D01*
X348500D02*
X347700Y384300D01*
X349300D01*
X348500Y382700D01*
X523500Y380200D02*
X522700Y381800D01*
X524300D01*
X523500Y380200D01*
X488500D02*
X487700Y381800D01*
X489300D01*
X488500Y380200D01*
X415000Y310200D02*
X415400Y310600D01*
X415800D01*
X415400Y311000D01*
X415800Y311400D01*
X415400D01*
X415000Y311800D01*
X414600Y311400D01*
X414200D01*
X414600Y311000D01*
X414200Y310600D01*
X414600D01*
X415000Y310200D01*
X440000D02*
X440400Y310600D01*
X440800D01*
X440400Y311000D01*
X440800Y311400D01*
X440400D01*
X440000Y311800D01*
X439600Y311400D01*
X439200D01*
X439600Y311000D01*
X439200Y310600D01*
X439600D01*
X440000Y310200D01*
X425000Y330200D02*
X425400Y330600D01*
X425800D01*
X425400Y331000D01*
X425800Y331400D01*
X425400D01*
X425000Y331800D01*
X424600Y331400D01*
X424200D01*
X424600Y331000D01*
X424200Y330600D01*
X424600D01*
X425000Y330200D01*
X370500Y344200D02*
X369700Y345800D01*
X371300D01*
X370500Y344200D01*
X360500D02*
X359700Y345800D01*
X361300D01*
X360500Y344200D01*
X350500D02*
X349700Y345800D01*
X351300D01*
X350500Y344200D01*
X340500D02*
X339700Y345800D01*
X341300D01*
X340500Y344200D01*
X330500D02*
X329700Y345800D01*
X331300D01*
X330500Y344200D01*
X320500D02*
X319700Y345800D01*
X321300D01*
X320500Y344200D01*
X310500D02*
X309700Y345800D01*
X311300D01*
X310500Y344200D01*
X300500D02*
X299700Y345800D01*
X301300D01*
X300500Y344200D01*
X370500Y314200D02*
X369700Y315800D01*
X371300D01*
X370500Y314200D01*
X360500D02*
X359700Y315800D01*
X361300D01*
X360500Y314200D01*
X350500D02*
X349700Y315800D01*
X351300D01*
X350500Y314200D01*
X340500D02*
X339700Y315800D01*
X341300D01*
X340500Y314200D01*
X330500D02*
X329700Y315800D01*
X331300D01*
X330500Y314200D01*
X320500D02*
X319700Y315800D01*
X321300D01*
X320500Y314200D01*
X310500D02*
X309700Y315800D01*
X311300D01*
X310500Y314200D01*
X300500D02*
X299700Y315800D01*
X301300D01*
X300500Y314200D01*
X457500Y278700D02*
X456700Y280300D01*
X458300D01*
X457500Y278700D01*
X447500D02*
X446700Y280300D01*
X448300D01*
X447500Y278700D01*
X437500D02*
X436700Y280300D01*
X438300D01*
X437500Y278700D01*
X427500D02*
X426700Y280300D01*
X428300D01*
X427500Y278700D01*
X457500Y248700D02*
X456700Y250300D01*
X458300D01*
X457500Y248700D01*
X447500D02*
X446700Y250300D01*
X448300D01*
X447500Y248700D01*
X437500D02*
X436700Y250300D01*
X438300D01*
X437500Y248700D01*
X427500D02*
X426700Y250300D01*
X428300D01*
X427500Y248700D01*
X473000Y280700D02*
X472200Y282300D01*
X473800D01*
X473000Y280700D01*
Y245700D02*
X472200Y247300D01*
X473800D01*
X473000Y245700D01*
X524000Y359700D02*
X523200Y361300D01*
X524800D01*
X524000Y359700D01*
X489000D02*
X488200Y361300D01*
X489800D01*
X489000Y359700D01*
X314500Y289700D02*
X313700Y291300D01*
X315300D01*
X314500Y289700D01*
X349500D02*
X348700Y291300D01*
X350300D01*
X349500Y289700D01*
X401500Y229200D02*
X400700Y230800D01*
X402300D01*
X401500Y229200D01*
X366500D02*
X365700Y230800D01*
X367300D01*
X366500Y229200D01*
X314500Y279700D02*
X313700Y281300D01*
X315300D01*
X314500Y279700D01*
X349500D02*
X348700Y281300D01*
X350300D01*
X349500Y279700D01*
X436200Y230700D02*
X436600Y231500D01*
X436200Y232300D01*
X437000Y231900D01*
X437800Y232300D01*
X437400Y231500D01*
X437800Y230700D01*
X437000Y231100D01*
X436200Y230700D01*
X456200D02*
X456600Y231500D01*
X456200Y232300D01*
X457000Y231900D01*
X457800Y232300D01*
X457400Y231500D01*
X457800Y230700D01*
X457000Y231100D01*
X456200Y230700D01*
X446200D02*
X446600Y231500D01*
X446200Y232300D01*
X447000Y231900D01*
X447800Y232300D01*
X447400Y231500D01*
X447800Y230700D01*
X447000Y231100D01*
X446200Y230700D01*
X314500Y269700D02*
X313700Y271300D01*
X315300D01*
X314500Y269700D01*
X349500D02*
X348700Y271300D01*
X350300D01*
X349500Y269700D01*
X436000Y181700D02*
X435200Y183300D01*
X436800D01*
X436000Y181700D01*
X401000D02*
X400200Y183300D01*
X401800D01*
X401000Y181700D01*
X409500Y202200D02*
X408700Y203800D01*
X410300D01*
X409500Y202200D01*
X374500D02*
X373700Y203800D01*
X375300D01*
X374500Y202200D01*
D40*
X305800Y246500D02*
X305247Y247261D01*
X304353Y246970D01*
Y246030D01*
X305247Y245739D01*
X305800Y246500D01*
X295800D02*
X295247Y247261D01*
X294353Y246970D01*
Y246030D01*
X295247Y245739D01*
X295800Y246500D01*
X421800Y375000D02*
X421247Y375761D01*
X420353Y375470D01*
Y374530D01*
X421247Y374239D01*
X421800Y375000D01*
X411800D02*
X411247Y375761D01*
X410353Y375470D01*
Y374530D01*
X411247Y374239D01*
X411800Y375000D01*
X464300Y411000D02*
X463747Y411761D01*
X462853Y411470D01*
Y410530D01*
X463747Y410239D01*
X464300Y411000D01*
X454300D02*
X453747Y411761D01*
X452853Y411470D01*
Y410530D01*
X453747Y410239D01*
X454300Y411000D01*
X377300Y412500D02*
X376747Y413261D01*
X375853Y412970D01*
Y412030D01*
X376747Y411739D01*
X377300Y412500D01*
X367300D02*
X366747Y413261D01*
X365853Y412970D01*
Y412030D01*
X366747Y411739D01*
X367300Y412500D01*
X323800Y416000D02*
X323247Y416761D01*
X322353Y416470D01*
Y415530D01*
X323247Y415239D01*
X323800Y416000D01*
X313800D02*
X313247Y416761D01*
X312353Y416470D01*
Y415530D01*
X313247Y415239D01*
X313800Y416000D01*
X520300Y407500D02*
X519747Y408261D01*
X518853Y407970D01*
Y407030D01*
X519747Y406739D01*
X520300Y407500D01*
X510300D02*
X509747Y408261D01*
X508853Y407970D01*
Y407030D01*
X509747Y406739D01*
X510300Y407500D01*
X562300Y373000D02*
X561747Y373761D01*
X560853Y373470D01*
Y372530D01*
X561747Y372239D01*
X562300Y373000D01*
X552300D02*
X551747Y373761D01*
X550853Y373470D01*
Y372530D01*
X551747Y372239D01*
X552300Y373000D01*
X272800Y381000D02*
X272247Y381761D01*
X271353Y381470D01*
Y380530D01*
X272247Y380239D01*
X272800Y381000D01*
X262800D02*
X262247Y381761D01*
X261353Y381470D01*
Y380530D01*
X262247Y380239D01*
X262800Y381000D01*
X581800Y327500D02*
X581247Y328261D01*
X580353Y327970D01*
Y327030D01*
X581247Y326739D01*
X581800Y327500D01*
X571800D02*
X571247Y328261D01*
X570353Y327970D01*
Y327030D01*
X571247Y326739D01*
X571800Y327500D01*
X256800Y328500D02*
X256247Y329261D01*
X255353Y328970D01*
Y328030D01*
X256247Y327739D01*
X256800Y328500D01*
X246800D02*
X246247Y329261D01*
X245353Y328970D01*
Y328030D01*
X246247Y327739D01*
X246800Y328500D01*
X280800Y289500D02*
X280247Y290261D01*
X279353Y289970D01*
Y289030D01*
X280247Y288739D01*
X280800Y289500D01*
X270800D02*
X270247Y290261D01*
X269353Y289970D01*
Y289030D01*
X270247Y288739D01*
X270800Y289500D01*
X556300Y283500D02*
X555747Y284261D01*
X554853Y283970D01*
Y283030D01*
X555747Y282739D01*
X556300Y283500D01*
X546300D02*
X545747Y284261D01*
X544853Y283970D01*
Y283030D01*
X545747Y282739D01*
X546300Y283500D01*
X525300Y241500D02*
X524747Y242261D01*
X523853Y241970D01*
Y241030D01*
X524747Y240739D01*
X525300Y241500D01*
X515300D02*
X514747Y242261D01*
X513853Y241970D01*
Y241030D01*
X514747Y240739D01*
X515300Y241500D01*
X334300Y212500D02*
X333747Y213261D01*
X332853Y212970D01*
Y212030D01*
X333747Y211739D01*
X334300Y212500D01*
X324300D02*
X323747Y213261D01*
X322853Y212970D01*
Y212030D01*
X323747Y211739D01*
X324300Y212500D01*
X499800Y203500D02*
X499247Y204261D01*
X498353Y203970D01*
Y203030D01*
X499247Y202739D01*
X499800Y203500D01*
X489800D02*
X489247Y204261D01*
X488353Y203970D01*
Y203030D01*
X489247Y202739D01*
X489800Y203500D01*
X462300Y172000D02*
X461747Y172761D01*
X460853Y172470D01*
Y171530D01*
X461747Y171239D01*
X462300Y172000D01*
X452300D02*
X451747Y172761D01*
X450853Y172470D01*
Y171530D01*
X451747Y171239D01*
X452300Y172000D01*
X373300Y175500D02*
X372747Y176261D01*
X371853Y175970D01*
Y175030D01*
X372747Y174739D01*
X373300Y175500D01*
X363300D02*
X362747Y176261D01*
X361853Y175970D01*
Y175030D01*
X362747Y174739D01*
X363300Y175500D01*
X417300Y144000D02*
X416747Y144761D01*
X415853Y144470D01*
Y143530D01*
X416747Y143239D01*
X417300Y144000D01*
X407300D02*
X406747Y144761D01*
X405853Y144470D01*
Y143530D01*
X406747Y143239D01*
X407300Y144000D01*
M02*
