G04*
G04 #@! TF.GenerationSoftware,Altium Limited,Altium Designer,18.0.7 (293)*
G04*
G04 Layer_Color=65535*
%FSLAX25Y25*%
%MOIN*%
G70*
G01*
G75*
%ADD10C,0.00700*%
%ADD11C,0.01500*%
%ADD12C,0.00500*%
%ADD13C,0.01000*%
G36*
X403600Y285400D02*
Y250500D01*
X405500Y253100D01*
X405600Y252900D01*
X407300Y255600D01*
X408900Y259000D01*
X410400Y265100D01*
X410500Y268000D01*
X410300Y271400D01*
X409600Y275000D01*
X407600Y279600D01*
X403600Y285400D01*
D02*
G37*
D10*
X410500Y268000D02*
X410480Y269000D01*
X410420Y269999D01*
X410320Y270994D01*
X410180Y271985D01*
X410001Y272969D01*
X409783Y273945D01*
X409525Y274912D01*
X409230Y275868D01*
X408896Y276811D01*
X408525Y277740D01*
X408116Y278654D01*
X407672Y279550D01*
X407192Y280428D01*
X406678Y281286D01*
X406129Y282122D01*
X405548Y282936D01*
X404934Y283727D01*
X404289Y284491D01*
X403614Y285230D01*
X402910Y285941D01*
X402179Y286623D01*
X401420Y287276D01*
X400636Y287897D01*
X399828Y288487D01*
X398997Y289044D01*
X398144Y289567D01*
X397271Y290055D01*
X396379Y290509D01*
X395470Y290926D01*
X394545Y291306D01*
X393605Y291650D01*
X392652Y291955D01*
X391688Y292222D01*
X390714Y292450D01*
X389732Y292639D01*
X388742Y292789D01*
X387748Y292899D01*
X386750Y292969D01*
X385750Y292999D01*
X384750Y292989D01*
X383751Y292939D01*
X382754Y292849D01*
X381762Y292719D01*
X380776Y292550D01*
X379798Y292341D01*
X378828Y292093D01*
X377870Y291807D01*
X376923Y291483D01*
X375991Y291121D01*
X375073Y290722D01*
X374173Y290286D01*
X373290Y289815D01*
X372427Y289310D01*
X371585Y288769D01*
X370765Y288196D01*
X369969Y287590D01*
X369197Y286953D01*
X368452Y286286D01*
X367734Y285589D01*
X367045Y284864D01*
X366385Y284112D01*
X365755Y283334D01*
X365158Y282532D01*
X364593Y281707D01*
X364061Y280859D01*
X363563Y279991D01*
X363101Y279104D01*
X362675Y278199D01*
X362285Y277277D01*
X361933Y276341D01*
X361618Y275392D01*
X361341Y274430D01*
X361103Y273459D01*
X360904Y272478D01*
X360745Y271490D01*
X360625Y270497D01*
X360545Y269500D01*
X360505Y268500D01*
X360505Y267500D01*
X360545Y266500D01*
X360625Y265503D01*
X360745Y264510D01*
X360904Y263522D01*
X361103Y262542D01*
X361341Y261570D01*
X361618Y260608D01*
X361933Y259659D01*
X362285Y258722D01*
X362675Y257801D01*
X363101Y256896D01*
X363563Y256009D01*
X364061Y255141D01*
X364593Y254293D01*
X365158Y253468D01*
X365755Y252665D01*
X366385Y251888D01*
X367045Y251136D01*
X367734Y250411D01*
X368452Y249714D01*
X369197Y249047D01*
X369969Y248410D01*
X370765Y247804D01*
X371585Y247231D01*
X372427Y246691D01*
X373290Y246184D01*
X374173Y245713D01*
X375073Y245278D01*
X375991Y244879D01*
X376923Y244517D01*
X377870Y244193D01*
X378829Y243907D01*
X379798Y243659D01*
X380776Y243450D01*
X381762Y243281D01*
X382754Y243151D01*
X383751Y243061D01*
X384750Y243011D01*
X385750Y243001D01*
X386750Y243031D01*
X387748Y243101D01*
X388743Y243211D01*
X389732Y243361D01*
X390714Y243550D01*
X391688Y243778D01*
X392653Y244045D01*
X393605Y244350D01*
X394545Y244694D01*
X395470Y245074D01*
X396379Y245491D01*
X397271Y245945D01*
X398144Y246433D01*
X398997Y246956D01*
X399828Y247513D01*
X400636Y248103D01*
X401420Y248725D01*
X402179Y249377D01*
X402911Y250059D01*
X403614Y250770D01*
X404289Y251509D01*
X404934Y252274D01*
X405548Y253064D01*
X406129Y253878D01*
X406678Y254714D01*
X407192Y255572D01*
X407672Y256450D01*
X408116Y257347D01*
X408525Y258260D01*
X408896Y259189D01*
X409230Y260132D01*
X409525Y261088D01*
X409783Y262055D01*
X410001Y263031D01*
X410180Y264015D01*
X410320Y265006D01*
X410420Y266001D01*
X410480Y267000D01*
X410500Y268000D01*
X310351Y252571D02*
X309812Y253409D01*
X309205Y254198D01*
X308535Y254935D01*
X307807Y255614D01*
X307024Y256229D01*
X306193Y256778D01*
X305320Y257256D01*
X304410Y257661D01*
X303469Y257988D01*
X302505Y258236D01*
X301523Y258403D01*
X300531Y258488D01*
X299535Y258491D01*
X298542Y258411D01*
X297560Y258249D01*
X296594Y258007D01*
X295652Y257684D01*
X294740Y257285D01*
X293863Y256812D01*
X293029Y256268D01*
X292244Y255656D01*
X291511Y254982D01*
X290837Y254249D01*
X290226Y253462D01*
X289683Y252628D01*
X289210Y251751D01*
X288812Y250839D01*
X288491Y249896D01*
X288249Y248930D01*
X288088Y247948D01*
X288009Y246955D01*
X288012Y245959D01*
X288098Y244967D01*
X288266Y243986D01*
X288515Y243021D01*
X288843Y242081D01*
X289248Y241171D01*
X289727Y240298D01*
X290277Y239468D01*
X290893Y238686D01*
X291572Y237958D01*
X292309Y237288D01*
X293100Y236682D01*
X293938Y236144D01*
X294817Y235677D01*
X295732Y235284D01*
X296677Y234969D01*
X297644Y234734D01*
X298628Y234579D01*
X299621Y234506D01*
X300617Y234516D01*
X301608Y234608D01*
X302589Y234783D01*
X303551Y235038D01*
X304490Y235371D01*
X305397Y235782D01*
X306267Y236266D01*
X307094Y236821D01*
X307872Y237443D01*
X308596Y238127D01*
X309260Y238868D01*
X309861Y239662D01*
X310394Y240503D01*
X426351Y381071D02*
X425812Y381908D01*
X425205Y382698D01*
X424535Y383435D01*
X423807Y384114D01*
X423024Y384730D01*
X422193Y385278D01*
X421320Y385756D01*
X420409Y386160D01*
X419469Y386488D01*
X418505Y386736D01*
X417523Y386903D01*
X416531Y386988D01*
X415535Y386991D01*
X414542Y386911D01*
X413560Y386749D01*
X412594Y386507D01*
X411652Y386185D01*
X410740Y385786D01*
X409863Y385312D01*
X409029Y384768D01*
X408244Y384156D01*
X407511Y383482D01*
X406837Y382749D01*
X406226Y381962D01*
X405683Y381128D01*
X405210Y380251D01*
X404812Y379339D01*
X404491Y378396D01*
X404249Y377430D01*
X404088Y376448D01*
X404009Y375455D01*
X404012Y374459D01*
X404098Y373467D01*
X404266Y372485D01*
X404515Y371521D01*
X404843Y370581D01*
X405248Y369671D01*
X405727Y368798D01*
X406277Y367968D01*
X406893Y367186D01*
X407572Y366458D01*
X408310Y365788D01*
X409100Y365182D01*
X409938Y364644D01*
X410817Y364177D01*
X411732Y363785D01*
X412677Y363469D01*
X413644Y363233D01*
X414628Y363079D01*
X415621Y363006D01*
X416617Y363016D01*
X417608Y363108D01*
X418589Y363283D01*
X419551Y363538D01*
X420490Y363872D01*
X421397Y364282D01*
X422267Y364766D01*
X423094Y365321D01*
X423872Y365943D01*
X424596Y366627D01*
X425260Y367368D01*
X425861Y368162D01*
X426394Y369003D01*
X468851Y417071D02*
X468312Y417908D01*
X467705Y418698D01*
X467035Y419435D01*
X466307Y420114D01*
X465524Y420729D01*
X464693Y421278D01*
X463820Y421756D01*
X462910Y422160D01*
X461969Y422488D01*
X461005Y422736D01*
X460023Y422903D01*
X459031Y422988D01*
X458035Y422991D01*
X457042Y422911D01*
X456060Y422749D01*
X455094Y422507D01*
X454152Y422185D01*
X453239Y421785D01*
X452363Y421312D01*
X451530Y420768D01*
X450744Y420156D01*
X450011Y419482D01*
X449337Y418749D01*
X448726Y417962D01*
X448183Y417128D01*
X447710Y416251D01*
X447312Y415339D01*
X446991Y414396D01*
X446749Y413430D01*
X446588Y412448D01*
X446509Y411455D01*
X446512Y410459D01*
X446598Y409467D01*
X446766Y408486D01*
X447015Y407521D01*
X447343Y406581D01*
X447748Y405671D01*
X448227Y404798D01*
X448776Y403968D01*
X449393Y403186D01*
X450072Y402458D01*
X450810Y401788D01*
X451600Y401182D01*
X452438Y400644D01*
X453317Y400177D01*
X454232Y399784D01*
X455177Y399469D01*
X456144Y399234D01*
X457128Y399079D01*
X458121Y399006D01*
X459117Y399016D01*
X460108Y399108D01*
X461089Y399283D01*
X462051Y399538D01*
X462990Y399871D01*
X463897Y400282D01*
X464767Y400766D01*
X465594Y401321D01*
X466372Y401943D01*
X467096Y402627D01*
X467760Y403368D01*
X468361Y404162D01*
X468894Y405003D01*
X381851Y418571D02*
X381312Y419409D01*
X380705Y420198D01*
X380035Y420935D01*
X379307Y421614D01*
X378524Y422229D01*
X377693Y422778D01*
X376820Y423256D01*
X375909Y423661D01*
X374969Y423988D01*
X374005Y424236D01*
X373023Y424403D01*
X372031Y424488D01*
X371035Y424491D01*
X370042Y424411D01*
X369060Y424249D01*
X368094Y424007D01*
X367152Y423685D01*
X366240Y423285D01*
X365363Y422812D01*
X364529Y422268D01*
X363744Y421656D01*
X363011Y420982D01*
X362337Y420249D01*
X361726Y419462D01*
X361183Y418628D01*
X360710Y417751D01*
X360312Y416839D01*
X359991Y415896D01*
X359749Y414930D01*
X359588Y413947D01*
X359509Y412955D01*
X359512Y411959D01*
X359598Y410967D01*
X359766Y409985D01*
X360015Y409021D01*
X360343Y408081D01*
X360748Y407171D01*
X361227Y406298D01*
X361776Y405468D01*
X362393Y404686D01*
X363072Y403958D01*
X363809Y403288D01*
X364600Y402682D01*
X365438Y402144D01*
X366317Y401677D01*
X367232Y401285D01*
X368177Y400969D01*
X369144Y400734D01*
X370128Y400579D01*
X371121Y400506D01*
X372117Y400516D01*
X373108Y400608D01*
X374089Y400783D01*
X375051Y401038D01*
X375990Y401371D01*
X376897Y401782D01*
X377767Y402266D01*
X378594Y402821D01*
X379372Y403443D01*
X380096Y404127D01*
X380760Y404868D01*
X381361Y405662D01*
X381894Y406503D01*
X328351Y422071D02*
X327812Y422908D01*
X327205Y423698D01*
X326535Y424435D01*
X325807Y425114D01*
X325024Y425730D01*
X324193Y426278D01*
X323320Y426756D01*
X322410Y427161D01*
X321469Y427488D01*
X320505Y427736D01*
X319523Y427903D01*
X318531Y427988D01*
X317535Y427991D01*
X316542Y427911D01*
X315560Y427749D01*
X314594Y427506D01*
X313652Y427184D01*
X312739Y426786D01*
X311863Y426312D01*
X311030Y425768D01*
X310244Y425156D01*
X309511Y424482D01*
X308837Y423749D01*
X308226Y422962D01*
X307683Y422128D01*
X307210Y421251D01*
X306812Y420339D01*
X306491Y419396D01*
X306249Y418430D01*
X306088Y417448D01*
X306009Y416455D01*
X306012Y415459D01*
X306098Y414467D01*
X306266Y413485D01*
X306515Y412521D01*
X306843Y411581D01*
X307248Y410671D01*
X307727Y409798D01*
X308277Y408968D01*
X308893Y408186D01*
X309572Y407458D01*
X310310Y406788D01*
X311100Y406182D01*
X311938Y405644D01*
X312817Y405177D01*
X313732Y404784D01*
X314677Y404469D01*
X315644Y404234D01*
X316628Y404079D01*
X317621Y404006D01*
X318617Y404016D01*
X319608Y404108D01*
X320589Y404283D01*
X321551Y404538D01*
X322490Y404872D01*
X323397Y405282D01*
X324267Y405766D01*
X325094Y406321D01*
X325872Y406943D01*
X326596Y407627D01*
X327260Y408368D01*
X327861Y409162D01*
X328394Y410003D01*
X524851Y413571D02*
X524312Y414408D01*
X523705Y415198D01*
X523035Y415935D01*
X522307Y416614D01*
X521524Y417230D01*
X520693Y417778D01*
X519820Y418256D01*
X518910Y418660D01*
X517969Y418988D01*
X517005Y419236D01*
X516023Y419403D01*
X515031Y419488D01*
X514035Y419491D01*
X513042Y419411D01*
X512060Y419249D01*
X511094Y419006D01*
X510152Y418684D01*
X509239Y418286D01*
X508363Y417812D01*
X507529Y417268D01*
X506744Y416656D01*
X506011Y415982D01*
X505337Y415249D01*
X504726Y414462D01*
X504183Y413628D01*
X503710Y412751D01*
X503312Y411839D01*
X502991Y410896D01*
X502749Y409930D01*
X502588Y408948D01*
X502509Y407955D01*
X502512Y406959D01*
X502598Y405967D01*
X502766Y404986D01*
X503015Y404021D01*
X503343Y403081D01*
X503748Y402171D01*
X504227Y401298D01*
X504776Y400468D01*
X505393Y399686D01*
X506072Y398958D01*
X506810Y398288D01*
X507600Y397682D01*
X508438Y397144D01*
X509317Y396677D01*
X510232Y396285D01*
X511177Y395969D01*
X512144Y395733D01*
X513128Y395579D01*
X514121Y395506D01*
X515117Y395516D01*
X516108Y395608D01*
X517089Y395783D01*
X518051Y396038D01*
X518990Y396372D01*
X519897Y396782D01*
X520767Y397266D01*
X521594Y397821D01*
X522372Y398443D01*
X523096Y399127D01*
X523760Y399868D01*
X524361Y400662D01*
X524894Y401503D01*
X566851Y379071D02*
X566312Y379908D01*
X565705Y380698D01*
X565035Y381435D01*
X564307Y382114D01*
X563524Y382730D01*
X562693Y383278D01*
X561820Y383756D01*
X560910Y384160D01*
X559969Y384488D01*
X559005Y384736D01*
X558023Y384903D01*
X557031Y384988D01*
X556035Y384991D01*
X555042Y384911D01*
X554060Y384749D01*
X553094Y384507D01*
X552152Y384185D01*
X551239Y383786D01*
X550363Y383312D01*
X549530Y382768D01*
X548744Y382156D01*
X548011Y381482D01*
X547337Y380749D01*
X546726Y379962D01*
X546183Y379128D01*
X545710Y378251D01*
X545312Y377339D01*
X544991Y376396D01*
X544749Y375430D01*
X544588Y374447D01*
X544509Y373455D01*
X544512Y372459D01*
X544598Y371467D01*
X544766Y370485D01*
X545015Y369521D01*
X545343Y368581D01*
X545748Y367671D01*
X546227Y366798D01*
X546776Y365968D01*
X547393Y365186D01*
X548072Y364458D01*
X548810Y363788D01*
X549600Y363182D01*
X550438Y362644D01*
X551317Y362177D01*
X552232Y361785D01*
X553177Y361469D01*
X554144Y361233D01*
X555128Y361079D01*
X556121Y361006D01*
X557117Y361016D01*
X558108Y361108D01*
X559089Y361283D01*
X560051Y361538D01*
X560990Y361872D01*
X561897Y362282D01*
X562767Y362766D01*
X563594Y363321D01*
X564372Y363943D01*
X565096Y364627D01*
X565760Y365368D01*
X566361Y366162D01*
X566894Y367003D01*
X277351Y387071D02*
X276812Y387909D01*
X276205Y388698D01*
X275535Y389435D01*
X274807Y390114D01*
X274024Y390729D01*
X273193Y391278D01*
X272320Y391756D01*
X271410Y392161D01*
X270469Y392488D01*
X269505Y392736D01*
X268523Y392903D01*
X267531Y392988D01*
X266535Y392991D01*
X265542Y392911D01*
X264560Y392749D01*
X263594Y392507D01*
X262652Y392184D01*
X261739Y391786D01*
X260863Y391312D01*
X260030Y390768D01*
X259244Y390156D01*
X258511Y389482D01*
X257837Y388749D01*
X257226Y387962D01*
X256683Y387128D01*
X256210Y386251D01*
X255812Y385339D01*
X255491Y384396D01*
X255249Y383430D01*
X255088Y382448D01*
X255009Y381455D01*
X255012Y380459D01*
X255098Y379467D01*
X255266Y378485D01*
X255515Y377521D01*
X255843Y376581D01*
X256248Y375671D01*
X256727Y374798D01*
X257277Y373968D01*
X257893Y373186D01*
X258572Y372458D01*
X259310Y371788D01*
X260100Y371182D01*
X260938Y370644D01*
X261817Y370177D01*
X262732Y369784D01*
X263677Y369469D01*
X264644Y369233D01*
X265628Y369079D01*
X266621Y369006D01*
X267617Y369016D01*
X268608Y369108D01*
X269589Y369283D01*
X270551Y369538D01*
X271490Y369871D01*
X272397Y370282D01*
X273267Y370766D01*
X274094Y371321D01*
X274872Y371943D01*
X275596Y372627D01*
X276260Y373368D01*
X276861Y374162D01*
X277394Y375003D01*
X375538Y334995D02*
X374541Y334929D01*
X373577Y334666D01*
X372685Y334217D01*
X371900Y333600D01*
X371253Y332839D01*
X370771Y331964D01*
X370472Y331011D01*
X370369Y330017D01*
X370465Y329023D01*
X370756Y328068D01*
X371232Y327189D01*
X371873Y326423D01*
X372653Y325800D01*
X373542Y325344D01*
X374504Y325074D01*
X375500Y325000D01*
X462538Y269495D02*
X461541Y269429D01*
X460577Y269166D01*
X459685Y268717D01*
X458900Y268100D01*
X458253Y267338D01*
X457771Y266464D01*
X457472Y265511D01*
X457369Y264517D01*
X457465Y263523D01*
X457756Y262568D01*
X458232Y261689D01*
X458873Y260923D01*
X459653Y260300D01*
X460542Y259844D01*
X461504Y259574D01*
X462500Y259500D01*
X586351Y333571D02*
X585812Y334408D01*
X585205Y335198D01*
X584535Y335935D01*
X583807Y336614D01*
X583024Y337229D01*
X582193Y337778D01*
X581320Y338256D01*
X580409Y338661D01*
X579469Y338988D01*
X578505Y339236D01*
X577523Y339403D01*
X576531Y339488D01*
X575535Y339491D01*
X574542Y339411D01*
X573560Y339249D01*
X572594Y339006D01*
X571652Y338685D01*
X570740Y338285D01*
X569863Y337812D01*
X569030Y337268D01*
X568244Y336656D01*
X567511Y335982D01*
X566837Y335249D01*
X566226Y334462D01*
X565683Y333628D01*
X565210Y332751D01*
X564812Y331839D01*
X564491Y330896D01*
X564249Y329930D01*
X564088Y328947D01*
X564009Y327955D01*
X564012Y326959D01*
X564098Y325967D01*
X564266Y324986D01*
X564515Y324021D01*
X564843Y323081D01*
X565248Y322171D01*
X565727Y321298D01*
X566277Y320468D01*
X566893Y319686D01*
X567572Y318958D01*
X568310Y318288D01*
X569100Y317682D01*
X569938Y317144D01*
X570817Y316677D01*
X571732Y316284D01*
X572677Y315969D01*
X573644Y315734D01*
X574628Y315579D01*
X575621Y315506D01*
X576617Y315516D01*
X577608Y315608D01*
X578589Y315783D01*
X579551Y316038D01*
X580490Y316371D01*
X581397Y316782D01*
X582267Y317266D01*
X583094Y317821D01*
X583872Y318443D01*
X584596Y319127D01*
X585260Y319868D01*
X585861Y320662D01*
X586394Y321503D01*
X261351Y334571D02*
X260812Y335408D01*
X260205Y336198D01*
X259535Y336935D01*
X258807Y337614D01*
X258024Y338229D01*
X257193Y338778D01*
X256320Y339256D01*
X255410Y339661D01*
X254469Y339988D01*
X253505Y340236D01*
X252523Y340403D01*
X251531Y340488D01*
X250535Y340491D01*
X249542Y340411D01*
X248560Y340249D01*
X247594Y340006D01*
X246652Y339685D01*
X245740Y339285D01*
X244863Y338812D01*
X244029Y338268D01*
X243244Y337656D01*
X242511Y336982D01*
X241837Y336249D01*
X241226Y335462D01*
X240683Y334628D01*
X240210Y333751D01*
X239812Y332839D01*
X239491Y331896D01*
X239249Y330930D01*
X239088Y329947D01*
X239009Y328955D01*
X239012Y327959D01*
X239098Y326967D01*
X239266Y325986D01*
X239515Y325021D01*
X239843Y324081D01*
X240248Y323171D01*
X240727Y322298D01*
X241277Y321468D01*
X241893Y320686D01*
X242572Y319958D01*
X243309Y319288D01*
X244100Y318682D01*
X244938Y318144D01*
X245817Y317677D01*
X246732Y317284D01*
X247677Y316969D01*
X248644Y316734D01*
X249628Y316579D01*
X250621Y316506D01*
X251617Y316516D01*
X252608Y316608D01*
X253589Y316783D01*
X254551Y317038D01*
X255490Y317372D01*
X256397Y317782D01*
X257267Y318266D01*
X258094Y318821D01*
X258872Y319443D01*
X259596Y320127D01*
X260260Y320868D01*
X260861Y321662D01*
X261394Y322503D01*
X285351Y295571D02*
X284812Y296409D01*
X284205Y297198D01*
X283535Y297935D01*
X282807Y298614D01*
X282024Y299230D01*
X281193Y299778D01*
X280320Y300256D01*
X279410Y300660D01*
X278469Y300988D01*
X277505Y301236D01*
X276523Y301403D01*
X275531Y301488D01*
X274535Y301491D01*
X273542Y301411D01*
X272560Y301249D01*
X271594Y301007D01*
X270652Y300684D01*
X269740Y300286D01*
X268863Y299812D01*
X268029Y299268D01*
X267244Y298656D01*
X266511Y297982D01*
X265837Y297249D01*
X265226Y296462D01*
X264683Y295628D01*
X264210Y294751D01*
X263812Y293839D01*
X263491Y292896D01*
X263249Y291930D01*
X263088Y290948D01*
X263009Y289955D01*
X263012Y288959D01*
X263098Y287967D01*
X263266Y286985D01*
X263515Y286021D01*
X263843Y285081D01*
X264248Y284171D01*
X264727Y283298D01*
X265277Y282468D01*
X265893Y281686D01*
X266572Y280958D01*
X267309Y280288D01*
X268100Y279682D01*
X268938Y279144D01*
X269817Y278677D01*
X270732Y278285D01*
X271677Y277969D01*
X272644Y277733D01*
X273628Y277579D01*
X274621Y277506D01*
X275617Y277516D01*
X276608Y277608D01*
X277589Y277783D01*
X278551Y278038D01*
X279490Y278372D01*
X280397Y278782D01*
X281267Y279266D01*
X282094Y279821D01*
X282872Y280443D01*
X283596Y281127D01*
X284260Y281868D01*
X284861Y282662D01*
X285394Y283503D01*
X560851Y289571D02*
X560312Y290408D01*
X559705Y291198D01*
X559035Y291935D01*
X558307Y292614D01*
X557524Y293230D01*
X556693Y293778D01*
X555820Y294256D01*
X554910Y294660D01*
X553969Y294988D01*
X553005Y295236D01*
X552023Y295403D01*
X551031Y295488D01*
X550035Y295491D01*
X549042Y295411D01*
X548060Y295249D01*
X547094Y295006D01*
X546152Y294685D01*
X545239Y294285D01*
X544363Y293812D01*
X543530Y293268D01*
X542744Y292656D01*
X542011Y291982D01*
X541337Y291249D01*
X540726Y290462D01*
X540183Y289628D01*
X539710Y288751D01*
X539312Y287839D01*
X538991Y286896D01*
X538749Y285930D01*
X538588Y284947D01*
X538509Y283955D01*
X538512Y282959D01*
X538598Y281967D01*
X538766Y280985D01*
X539015Y280021D01*
X539343Y279081D01*
X539748Y278171D01*
X540227Y277298D01*
X540776Y276468D01*
X541393Y275686D01*
X542072Y274958D01*
X542810Y274288D01*
X543600Y273682D01*
X544438Y273144D01*
X545317Y272677D01*
X546232Y272285D01*
X547177Y271969D01*
X548144Y271733D01*
X549128Y271579D01*
X550121Y271506D01*
X551117Y271516D01*
X552108Y271608D01*
X553089Y271783D01*
X554051Y272038D01*
X554990Y272372D01*
X555897Y272782D01*
X556767Y273266D01*
X557594Y273821D01*
X558372Y274443D01*
X559096Y275127D01*
X559760Y275868D01*
X560361Y276662D01*
X560894Y277503D01*
X529851Y247571D02*
X529312Y248409D01*
X528705Y249198D01*
X528035Y249935D01*
X527307Y250614D01*
X526524Y251230D01*
X525693Y251778D01*
X524820Y252256D01*
X523910Y252660D01*
X522969Y252988D01*
X522005Y253236D01*
X521023Y253403D01*
X520031Y253488D01*
X519035Y253491D01*
X518042Y253411D01*
X517060Y253249D01*
X516094Y253007D01*
X515152Y252684D01*
X514240Y252286D01*
X513363Y251812D01*
X512530Y251268D01*
X511744Y250656D01*
X511011Y249982D01*
X510337Y249249D01*
X509726Y248462D01*
X509183Y247628D01*
X508710Y246751D01*
X508312Y245839D01*
X507991Y244896D01*
X507749Y243930D01*
X507588Y242948D01*
X507509Y241955D01*
X507512Y240959D01*
X507598Y239967D01*
X507766Y238985D01*
X508015Y238021D01*
X508343Y237081D01*
X508748Y236171D01*
X509227Y235298D01*
X509776Y234468D01*
X510393Y233686D01*
X511072Y232958D01*
X511810Y232288D01*
X512600Y231682D01*
X513438Y231144D01*
X514317Y230677D01*
X515232Y230285D01*
X516177Y229969D01*
X517144Y229733D01*
X518128Y229579D01*
X519121Y229506D01*
X520117Y229516D01*
X521108Y229608D01*
X522089Y229783D01*
X523051Y230038D01*
X523990Y230371D01*
X524897Y230782D01*
X525767Y231266D01*
X526594Y231821D01*
X527372Y232443D01*
X528096Y233127D01*
X528760Y233868D01*
X529361Y234662D01*
X529894Y235503D01*
X338851Y218571D02*
X338312Y219408D01*
X337705Y220198D01*
X337035Y220935D01*
X336307Y221614D01*
X335524Y222230D01*
X334693Y222778D01*
X333820Y223256D01*
X332909Y223660D01*
X331969Y223988D01*
X331005Y224236D01*
X330023Y224403D01*
X329031Y224488D01*
X328035Y224491D01*
X327042Y224411D01*
X326060Y224249D01*
X325094Y224007D01*
X324152Y223685D01*
X323239Y223286D01*
X322363Y222812D01*
X321530Y222268D01*
X320744Y221656D01*
X320011Y220982D01*
X319337Y220249D01*
X318726Y219462D01*
X318183Y218628D01*
X317710Y217751D01*
X317312Y216839D01*
X316991Y215896D01*
X316749Y214930D01*
X316588Y213948D01*
X316509Y212955D01*
X316512Y211959D01*
X316598Y210967D01*
X316766Y209985D01*
X317015Y209021D01*
X317343Y208081D01*
X317748Y207171D01*
X318227Y206298D01*
X318776Y205468D01*
X319393Y204686D01*
X320072Y203958D01*
X320810Y203288D01*
X321600Y202682D01*
X322438Y202144D01*
X323317Y201677D01*
X324232Y201285D01*
X325177Y200969D01*
X326144Y200733D01*
X327128Y200579D01*
X328121Y200506D01*
X329117Y200516D01*
X330108Y200608D01*
X331089Y200783D01*
X332051Y201038D01*
X332990Y201372D01*
X333897Y201782D01*
X334767Y202266D01*
X335594Y202821D01*
X336372Y203443D01*
X337096Y204127D01*
X337760Y204868D01*
X338361Y205662D01*
X338894Y206503D01*
X504351Y209571D02*
X503812Y210408D01*
X503205Y211198D01*
X502535Y211935D01*
X501807Y212614D01*
X501024Y213229D01*
X500193Y213778D01*
X499320Y214256D01*
X498410Y214661D01*
X497469Y214988D01*
X496505Y215236D01*
X495523Y215403D01*
X494531Y215488D01*
X493535Y215491D01*
X492542Y215411D01*
X491560Y215249D01*
X490594Y215006D01*
X489652Y214685D01*
X488739Y214285D01*
X487863Y213812D01*
X487030Y213268D01*
X486244Y212656D01*
X485511Y211982D01*
X484837Y211249D01*
X484226Y210462D01*
X483683Y209628D01*
X483210Y208751D01*
X482812Y207839D01*
X482491Y206896D01*
X482249Y205930D01*
X482088Y204947D01*
X482009Y203955D01*
X482012Y202959D01*
X482098Y201967D01*
X482266Y200986D01*
X482515Y200021D01*
X482843Y199081D01*
X483248Y198171D01*
X483727Y197298D01*
X484276Y196468D01*
X484893Y195686D01*
X485572Y194958D01*
X486310Y194288D01*
X487100Y193682D01*
X487938Y193144D01*
X488817Y192677D01*
X489732Y192285D01*
X490677Y191969D01*
X491644Y191734D01*
X492628Y191579D01*
X493621Y191506D01*
X494617Y191516D01*
X495608Y191608D01*
X496589Y191783D01*
X497551Y192038D01*
X498490Y192371D01*
X499397Y192782D01*
X500267Y193266D01*
X501094Y193821D01*
X501872Y194443D01*
X502596Y195127D01*
X503260Y195868D01*
X503861Y196662D01*
X504394Y197503D01*
X466851Y178071D02*
X466312Y178909D01*
X465705Y179698D01*
X465035Y180435D01*
X464307Y181114D01*
X463524Y181729D01*
X462693Y182278D01*
X461820Y182756D01*
X460910Y183160D01*
X459969Y183488D01*
X459005Y183736D01*
X458023Y183903D01*
X457031Y183988D01*
X456035Y183991D01*
X455042Y183911D01*
X454060Y183749D01*
X453094Y183507D01*
X452152Y183185D01*
X451239Y182785D01*
X450363Y182312D01*
X449530Y181768D01*
X448744Y181156D01*
X448011Y180482D01*
X447337Y179749D01*
X446726Y178962D01*
X446183Y178128D01*
X445710Y177251D01*
X445312Y176339D01*
X444991Y175396D01*
X444749Y174430D01*
X444588Y173448D01*
X444509Y172455D01*
X444512Y171459D01*
X444598Y170467D01*
X444766Y169485D01*
X445015Y168521D01*
X445343Y167581D01*
X445748Y166671D01*
X446227Y165798D01*
X446776Y164968D01*
X447393Y164186D01*
X448072Y163458D01*
X448810Y162788D01*
X449600Y162182D01*
X450438Y161644D01*
X451317Y161177D01*
X452232Y160784D01*
X453177Y160469D01*
X454144Y160233D01*
X455128Y160079D01*
X456121Y160006D01*
X457117Y160016D01*
X458108Y160108D01*
X459089Y160283D01*
X460051Y160538D01*
X460990Y160872D01*
X461897Y161282D01*
X462767Y161766D01*
X463594Y162321D01*
X464372Y162943D01*
X465096Y163627D01*
X465760Y164368D01*
X466361Y165162D01*
X466894Y166003D01*
X377851Y181571D02*
X377312Y182408D01*
X376705Y183198D01*
X376035Y183935D01*
X375307Y184614D01*
X374524Y185230D01*
X373693Y185778D01*
X372820Y186256D01*
X371909Y186661D01*
X370969Y186988D01*
X370005Y187236D01*
X369023Y187403D01*
X368031Y187488D01*
X367035Y187491D01*
X366042Y187411D01*
X365060Y187249D01*
X364094Y187006D01*
X363152Y186685D01*
X362240Y186285D01*
X361363Y185812D01*
X360529Y185268D01*
X359744Y184656D01*
X359011Y183982D01*
X358337Y183249D01*
X357726Y182462D01*
X357183Y181628D01*
X356710Y180751D01*
X356312Y179839D01*
X355991Y178896D01*
X355749Y177930D01*
X355588Y176947D01*
X355509Y175955D01*
X355512Y174959D01*
X355598Y173967D01*
X355766Y172985D01*
X356015Y172021D01*
X356343Y171081D01*
X356748Y170171D01*
X357227Y169298D01*
X357776Y168468D01*
X358393Y167686D01*
X359072Y166958D01*
X359809Y166288D01*
X360600Y165682D01*
X361438Y165144D01*
X362317Y164677D01*
X363232Y164285D01*
X364177Y163969D01*
X365144Y163733D01*
X366128Y163579D01*
X367121Y163506D01*
X368117Y163516D01*
X369108Y163608D01*
X370089Y163783D01*
X371051Y164038D01*
X371990Y164372D01*
X372897Y164782D01*
X373767Y165266D01*
X374594Y165821D01*
X375372Y166443D01*
X376096Y167127D01*
X376760Y167868D01*
X377361Y168662D01*
X377894Y169503D01*
X421851Y150071D02*
X421312Y150909D01*
X420705Y151698D01*
X420035Y152435D01*
X419307Y153114D01*
X418524Y153729D01*
X417693Y154278D01*
X416820Y154756D01*
X415909Y155160D01*
X414969Y155488D01*
X414005Y155736D01*
X413023Y155903D01*
X412031Y155988D01*
X411035Y155991D01*
X410042Y155911D01*
X409060Y155749D01*
X408094Y155507D01*
X407152Y155184D01*
X406240Y154786D01*
X405363Y154312D01*
X404529Y153768D01*
X403744Y153156D01*
X403011Y152482D01*
X402337Y151749D01*
X401726Y150962D01*
X401183Y150128D01*
X400710Y149251D01*
X400312Y148339D01*
X399991Y147396D01*
X399749Y146430D01*
X399588Y145448D01*
X399509Y144455D01*
X399512Y143459D01*
X399598Y142467D01*
X399766Y141486D01*
X400015Y140521D01*
X400343Y139581D01*
X400748Y138671D01*
X401227Y137798D01*
X401777Y136968D01*
X402393Y136186D01*
X403072Y135458D01*
X403809Y134788D01*
X404600Y134182D01*
X405438Y133644D01*
X406317Y133177D01*
X407232Y132784D01*
X408177Y132469D01*
X409144Y132234D01*
X410128Y132079D01*
X411121Y132006D01*
X412117Y132016D01*
X413108Y132108D01*
X414089Y132283D01*
X415051Y132538D01*
X415990Y132871D01*
X416897Y133282D01*
X417767Y133766D01*
X418594Y134321D01*
X419372Y134943D01*
X420096Y135627D01*
X420760Y136368D01*
X421361Y137162D01*
X421894Y138003D01*
X366000Y266600D02*
Y269700D01*
X364500Y268100D02*
X367400D01*
X310400Y240600D02*
Y252500D01*
X294100Y252100D02*
Y254900D01*
X292600Y253400D02*
X295600D01*
X386700Y384000D02*
X390200D01*
X368200Y380200D02*
X386700D01*
X364800Y384000D02*
X368200D01*
Y387800D02*
X386700D01*
X368200Y380200D02*
Y387800D01*
X386700Y380200D02*
Y387800D01*
X426400Y369100D02*
Y381000D01*
X410100Y380600D02*
Y383400D01*
X408600Y381900D02*
X411600D01*
X445300Y385500D02*
X448800D01*
Y389300D02*
X467300D01*
Y385500D02*
X470700D01*
X448800Y381700D02*
X467300D01*
Y389300D01*
X448800Y381700D02*
Y389300D01*
X468900Y405100D02*
Y417000D01*
X452600Y416600D02*
Y419400D01*
X451100Y417900D02*
X454100D01*
X381900Y406600D02*
Y418500D01*
X365600Y418100D02*
Y420900D01*
X364100Y419400D02*
X367100D01*
X318300Y383500D02*
X321800D01*
Y387300D02*
X340300D01*
Y383500D02*
X343700D01*
X321800Y379700D02*
X340300D01*
Y387300D01*
X321800Y379700D02*
Y387300D01*
X328400Y410100D02*
Y422000D01*
X312100Y421600D02*
Y424400D01*
X310600Y422900D02*
X313600D01*
X524900Y401600D02*
Y413500D01*
X508600Y413100D02*
Y415900D01*
X507100Y414400D02*
X510100D01*
X515200Y381000D02*
X518700D01*
X496700Y377200D02*
X515200D01*
X493300Y381000D02*
X496700D01*
Y384800D02*
X515200D01*
X496700Y377200D02*
Y384800D01*
X515200Y377200D02*
Y384800D01*
X470000Y296000D02*
Y329000D01*
X415500Y296000D02*
Y329000D01*
Y296000D02*
X470000D01*
X415500Y329000D02*
X470000D01*
X463000Y296000D02*
Y329000D01*
X566900Y367100D02*
Y379000D01*
X550600Y378600D02*
Y381400D01*
X549100Y379900D02*
X552100D01*
X277400Y375100D02*
Y387000D01*
X261100Y386600D02*
Y389400D01*
X259600Y387900D02*
X262600D01*
X305500Y325000D02*
X365500D01*
X305500D02*
Y335000D01*
X365500D01*
Y325000D02*
Y335000D01*
X375500D02*
Y350000D01*
Y310000D02*
Y324900D01*
X295500Y350000D02*
X375500D01*
X295500Y310000D02*
Y350000D01*
Y310000D02*
X375400D01*
X375500Y310100D01*
X432300Y259500D02*
X452400D01*
Y269500D01*
X432300D02*
X452400D01*
X432300Y259500D02*
Y269500D01*
X422500Y244500D02*
X462500D01*
X422500D02*
Y284500D01*
X462500D01*
Y244500D02*
Y259400D01*
Y269500D02*
Y284500D01*
X473000Y273200D02*
Y276700D01*
X476800Y254700D02*
Y273200D01*
X473000Y251300D02*
Y254700D01*
X469200D02*
Y273200D01*
Y254700D02*
X476800D01*
X469200Y273200D02*
X476800D01*
X515700Y360500D02*
X519200D01*
X497200Y356700D02*
X515700D01*
X493800Y360500D02*
X497200D01*
Y364300D02*
X515700D01*
X497200Y356700D02*
Y364300D01*
X515700Y356700D02*
Y364300D01*
X586400Y321600D02*
Y333500D01*
X570100Y333100D02*
Y335900D01*
X568600Y334400D02*
X571600D01*
X261400Y322600D02*
Y334500D01*
X245100Y334100D02*
Y336900D01*
X243600Y335400D02*
X246600D01*
X319300Y290500D02*
X322800D01*
Y294300D02*
X341300D01*
Y290500D02*
X344700D01*
X322800Y286700D02*
X341300D01*
Y294300D01*
X322800Y286700D02*
Y294300D01*
X393200Y230000D02*
X396700D01*
X374700Y226200D02*
X393200D01*
X371300Y230000D02*
X374700D01*
Y233800D02*
X393200D01*
X374700Y226200D02*
Y233800D01*
X393200Y226200D02*
Y233800D01*
X285400Y283600D02*
Y295500D01*
X269100Y295100D02*
Y297900D01*
X267600Y296400D02*
X270600D01*
X560900Y277600D02*
Y289500D01*
X544600Y289100D02*
Y291900D01*
X543100Y290400D02*
X546100D01*
X319300Y280500D02*
X322800D01*
Y284300D02*
X341300D01*
Y280500D02*
X344700D01*
X322800Y276700D02*
X341300D01*
Y284300D01*
X322800Y276700D02*
Y284300D01*
X529900Y235600D02*
Y247500D01*
X513600Y247100D02*
Y249900D01*
X512100Y248400D02*
X515100D01*
X319300Y270500D02*
X322800D01*
Y274300D02*
X341300D01*
Y270500D02*
X344700D01*
X322800Y266700D02*
X341300D01*
Y274300D01*
X322800Y266700D02*
Y274300D01*
X338900Y206600D02*
Y218500D01*
X322600Y218100D02*
Y220900D01*
X321100Y219400D02*
X324100D01*
X504400Y197600D02*
Y209500D01*
X488100Y209100D02*
Y211900D01*
X486600Y210400D02*
X489600D01*
X427700Y182500D02*
X431200D01*
X409200Y178700D02*
X427700D01*
X405800Y182500D02*
X409200D01*
Y186300D02*
X427700D01*
X409200Y178700D02*
Y186300D01*
X427700Y178700D02*
Y186300D01*
X466900Y166100D02*
Y178000D01*
X450600Y177600D02*
Y180400D01*
X449100Y178900D02*
X452100D01*
X377900Y169600D02*
Y181500D01*
X361600Y181100D02*
Y183900D01*
X360100Y182400D02*
X363100D01*
X401200Y203000D02*
X404700D01*
X382700Y199200D02*
X401200D01*
X379300Y203000D02*
X382700D01*
Y206800D02*
X401200D01*
X382700Y199200D02*
Y206800D01*
X401200Y199200D02*
Y206800D01*
X421900Y138100D02*
Y150000D01*
X405600Y149600D02*
Y152400D01*
X404100Y150900D02*
X407100D01*
D11*
X371200Y337300D02*
X370647Y338061D01*
X369753Y337770D01*
Y336830D01*
X370647Y336539D01*
X371200Y337300D01*
X458200Y271800D02*
X457647Y272561D01*
X456753Y272270D01*
Y271330D01*
X457647Y271039D01*
X458200Y271800D01*
D12*
X427500Y241900D02*
X466500D01*
X427500Y221100D02*
Y241900D01*
Y221100D02*
X466500D01*
Y241900D01*
X423000Y222500D02*
X427500D01*
X423000Y230300D02*
X427500D01*
X423000Y227400D02*
X425500D01*
Y225400D02*
Y227400D01*
X423000Y225400D02*
X425500D01*
X423000Y227400D02*
Y230300D01*
Y222500D02*
Y225400D01*
X436029Y239574D02*
X435910Y239812D01*
X435672Y240050D01*
X435434Y240169D01*
X434958D01*
X434720Y240050D01*
X434482Y239812D01*
X434363Y239574D01*
X434244Y239216D01*
Y238621D01*
X434363Y238264D01*
X434482Y238026D01*
X434720Y237788D01*
X434958Y237669D01*
X435434D01*
X435672Y237788D01*
X435910Y238026D01*
X436029Y238264D01*
X436732Y240169D02*
X437327Y237669D01*
X437922Y240169D02*
X437327Y237669D01*
X437922Y240169D02*
X438517Y237669D01*
X439112Y240169D02*
X438517Y237669D01*
D13*
X365149Y301348D02*
X364149Y302348D01*
X362150D01*
X361150Y301348D01*
Y297350D01*
X362150Y296350D01*
X364149D01*
X365149Y297350D01*
X371147Y296350D02*
X367148D01*
X371147Y300349D01*
Y301348D01*
X370147Y302348D01*
X368148D01*
X367148Y301348D01*
X377145Y296350D02*
X373146D01*
X377145Y300349D01*
Y301348D01*
X376145Y302348D01*
X374146D01*
X373146Y301348D01*
X363600Y237700D02*
Y243698D01*
X366599D01*
X367599Y242698D01*
Y240699D01*
X366599Y239699D01*
X363600D01*
X365599D02*
X367599Y237700D01*
X369598Y242698D02*
X370598Y243698D01*
X372597D01*
X373597Y242698D01*
Y241699D01*
X371597Y239699D01*
Y238700D02*
Y237700D01*
X371600Y210700D02*
Y216698D01*
X374599D01*
X375599Y215698D01*
Y213699D01*
X374599Y212699D01*
X371600D01*
X373599D02*
X375599Y210700D01*
X377598D02*
X379597D01*
X378598D01*
Y216698D01*
X377598Y215698D01*
X386595Y210700D02*
X382596D01*
X386595Y214699D01*
Y215698D01*
X385595Y216698D01*
X383596D01*
X382596Y215698D01*
X398100Y190200D02*
Y196198D01*
X401099D01*
X402099Y195198D01*
Y193199D01*
X401099Y192199D01*
X398100D01*
X400099D02*
X402099Y190200D01*
X404098D02*
X406097D01*
X405098D01*
Y196198D01*
X404098Y195198D01*
X409096Y190200D02*
X411096D01*
X410096D01*
Y196198D01*
X409096Y195198D01*
X311500Y278200D02*
Y284198D01*
X314499D01*
X315499Y283198D01*
Y281199D01*
X314499Y280199D01*
X311500D01*
X313499D02*
X315499Y278200D01*
X317498D02*
X319497D01*
X318498D01*
Y284198D01*
X317498Y283198D01*
X322496D02*
X323496Y284198D01*
X325496D01*
X326495Y283198D01*
Y279200D01*
X325496Y278200D01*
X323496D01*
X322496Y279200D01*
Y283198D01*
X423500Y245400D02*
Y251398D01*
X426499D01*
X427499Y250398D01*
Y248399D01*
X426499Y247399D01*
X423500D01*
X425499D02*
X427499Y245400D01*
X429498Y246400D02*
X430498Y245400D01*
X432497D01*
X433497Y246400D01*
Y250398D01*
X432497Y251398D01*
X430498D01*
X429498Y250398D01*
Y249399D01*
X430498Y248399D01*
X433497D01*
X311500Y288200D02*
Y294198D01*
X314499D01*
X315499Y293198D01*
Y291199D01*
X314499Y290199D01*
X311500D01*
X313499D02*
X315499Y288200D01*
X317498Y293198D02*
X318498Y294198D01*
X320497D01*
X321497Y293198D01*
Y292199D01*
X320497Y291199D01*
X321497Y290199D01*
Y289200D01*
X320497Y288200D01*
X318498D01*
X317498Y289200D01*
Y290199D01*
X318498Y291199D01*
X317498Y292199D01*
Y293198D01*
X318498Y291199D02*
X320497D01*
X311500Y298200D02*
Y304198D01*
X314499D01*
X315499Y303198D01*
Y301199D01*
X314499Y300199D01*
X311500D01*
X313499D02*
X315499Y298200D01*
X317498Y304198D02*
X321497D01*
Y303198D01*
X317498Y299200D01*
Y298200D01*
X486100Y368200D02*
Y374198D01*
X489099D01*
X490099Y373198D01*
Y371199D01*
X489099Y370199D01*
X486100D01*
X488099D02*
X490099Y368200D01*
X496097Y374198D02*
X494097Y373198D01*
X492098Y371199D01*
Y369200D01*
X493098Y368200D01*
X495097D01*
X496097Y369200D01*
Y370199D01*
X495097Y371199D01*
X492098D01*
X469300Y288500D02*
Y294498D01*
X472299D01*
X473299Y293498D01*
Y291499D01*
X472299Y290499D01*
X469300D01*
X471299D02*
X473299Y288500D01*
X479297Y294498D02*
X475298D01*
Y291499D01*
X477297Y292499D01*
X478297D01*
X479297Y291499D01*
Y289500D01*
X478297Y288500D01*
X476298D01*
X475298Y289500D01*
X485600Y388700D02*
Y394698D01*
X488599D01*
X489599Y393698D01*
Y391699D01*
X488599Y390699D01*
X485600D01*
X487599D02*
X489599Y388700D01*
X494597D02*
Y394698D01*
X491598Y391699D01*
X495597D01*
X310500Y391200D02*
Y397198D01*
X313499D01*
X314499Y396198D01*
Y394199D01*
X313499Y393199D01*
X310500D01*
X312499D02*
X314499Y391200D01*
X316498Y396198D02*
X317498Y397198D01*
X319497D01*
X320497Y396198D01*
Y395199D01*
X319497Y394199D01*
X318497D01*
X319497D01*
X320497Y393199D01*
Y392200D01*
X319497Y391200D01*
X317498D01*
X316498Y392200D01*
X437500Y393200D02*
Y399198D01*
X440499D01*
X441499Y398198D01*
Y396199D01*
X440499Y395199D01*
X437500D01*
X439499D02*
X441499Y393200D01*
X447497D02*
X443498D01*
X447497Y397199D01*
Y398198D01*
X446497Y399198D01*
X444498D01*
X443498Y398198D01*
X357100Y391700D02*
Y397698D01*
X360099D01*
X361099Y396698D01*
Y394699D01*
X360099Y393699D01*
X357100D01*
X359099D02*
X361099Y391700D01*
X363098D02*
X365097D01*
X364098D01*
Y397698D01*
X363098Y396698D01*
X400150Y165348D02*
Y159350D01*
X404149D01*
X410147Y165348D02*
X406148D01*
Y159350D01*
X410147D01*
X406148Y162349D02*
X408147D01*
X412146Y165348D02*
Y159350D01*
X415145D01*
X416145Y160350D01*
Y164348D01*
X415145Y165348D01*
X412146D01*
X418144Y159350D02*
X420144D01*
X419144D01*
Y165348D01*
X418144Y164348D01*
X423143D02*
X424142Y165348D01*
X426142D01*
X427141Y164348D01*
Y163349D01*
X426142Y162349D01*
X427141Y161349D01*
Y160350D01*
X426142Y159350D01*
X424142D01*
X423143Y160350D01*
Y161349D01*
X424142Y162349D01*
X423143Y163349D01*
Y164348D01*
X424142Y162349D02*
X426142D01*
X445150Y193348D02*
Y187350D01*
X449149D01*
X455147Y193348D02*
X451148D01*
Y187350D01*
X455147D01*
X451148Y190349D02*
X453147D01*
X457146Y193348D02*
Y187350D01*
X460145D01*
X461145Y188350D01*
Y192348D01*
X460145Y193348D01*
X457146D01*
X463144Y187350D02*
X465143D01*
X464144D01*
Y193348D01*
X463144Y192348D01*
X468143Y193348D02*
X472141D01*
Y192348D01*
X468143Y188350D01*
Y187350D01*
X356150Y196848D02*
Y190850D01*
X360149D01*
X366147Y196848D02*
X362148D01*
Y190850D01*
X366147D01*
X362148Y193849D02*
X364147D01*
X368146Y196848D02*
Y190850D01*
X371145D01*
X372145Y191850D01*
Y195848D01*
X371145Y196848D01*
X368146D01*
X374144Y190850D02*
X376144D01*
X375144D01*
Y196848D01*
X374144Y195848D01*
X383141Y196848D02*
X381142Y195848D01*
X379143Y193849D01*
Y191850D01*
X380142Y190850D01*
X382142D01*
X383141Y191850D01*
Y192849D01*
X382142Y193849D01*
X379143D01*
X317150Y233848D02*
Y227850D01*
X321149D01*
X327147Y233848D02*
X323148D01*
Y227850D01*
X327147D01*
X323148Y230849D02*
X325147D01*
X329146Y233848D02*
Y227850D01*
X332145D01*
X333145Y228850D01*
Y232848D01*
X332145Y233848D01*
X329146D01*
X335144Y227850D02*
X337143D01*
X336144D01*
Y233848D01*
X335144Y232848D01*
X344141Y233848D02*
X340143D01*
Y230849D01*
X342142Y231849D01*
X343142D01*
X344141Y230849D01*
Y228850D01*
X343142Y227850D01*
X341142D01*
X340143Y228850D01*
X482650Y224848D02*
Y218850D01*
X486649D01*
X492647Y224848D02*
X488648D01*
Y218850D01*
X492647D01*
X488648Y221849D02*
X490647D01*
X494646Y224848D02*
Y218850D01*
X497645D01*
X498645Y219850D01*
Y223848D01*
X497645Y224848D01*
X494646D01*
X500644Y218850D02*
X502643D01*
X501644D01*
Y224848D01*
X500644Y223848D01*
X508642Y218850D02*
Y224848D01*
X505643Y221849D01*
X509641D01*
X259500Y254498D02*
Y248500D01*
X263499D01*
X269497Y254498D02*
X265498D01*
Y248500D01*
X269497D01*
X265498Y251499D02*
X267497D01*
X271496Y254498D02*
Y248500D01*
X274495D01*
X275495Y249500D01*
Y253498D01*
X274495Y254498D01*
X271496D01*
X277494Y248500D02*
X279493D01*
X278494D01*
Y254498D01*
X277494Y253498D01*
X282493D02*
X283492Y254498D01*
X285492D01*
X286491Y253498D01*
Y252499D01*
X285492Y251499D01*
X284492D01*
X285492D01*
X286491Y250499D01*
Y249500D01*
X285492Y248500D01*
X283492D01*
X282493Y249500D01*
X508150Y262848D02*
Y256850D01*
X512149D01*
X518147Y262848D02*
X514148D01*
Y256850D01*
X518147D01*
X514148Y259849D02*
X516147D01*
X520146Y262848D02*
Y256850D01*
X523145D01*
X524145Y257850D01*
Y261848D01*
X523145Y262848D01*
X520146D01*
X526144Y256850D02*
X528144D01*
X527144D01*
Y262848D01*
X526144Y261848D01*
X535141Y256850D02*
X531143D01*
X535141Y260849D01*
Y261848D01*
X534142Y262848D01*
X532142D01*
X531143Y261848D01*
X539150Y304848D02*
Y298850D01*
X543149D01*
X549147Y304848D02*
X545148D01*
Y298850D01*
X549147D01*
X545148Y301849D02*
X547147D01*
X551146Y304848D02*
Y298850D01*
X554145D01*
X555145Y299850D01*
Y303848D01*
X554145Y304848D01*
X551146D01*
X557144Y298850D02*
X559143D01*
X558144D01*
Y304848D01*
X557144Y303848D01*
X562143Y298850D02*
X564142D01*
X563142D01*
Y304848D01*
X562143Y303848D01*
X263650Y310848D02*
Y304850D01*
X267649D01*
X273647Y310848D02*
X269648D01*
Y304850D01*
X273647D01*
X269648Y307849D02*
X271647D01*
X275646Y310848D02*
Y304850D01*
X278645D01*
X279645Y305850D01*
Y309848D01*
X278645Y310848D01*
X275646D01*
X281644Y304850D02*
X283644D01*
X282644D01*
Y310848D01*
X281644Y309848D01*
X286643D02*
X287642Y310848D01*
X289642D01*
X290641Y309848D01*
Y305850D01*
X289642Y304850D01*
X287642D01*
X286643Y305850D01*
Y309848D01*
X564650Y348848D02*
Y342850D01*
X568649D01*
X574647Y348848D02*
X570648D01*
Y342850D01*
X574647D01*
X570648Y345849D02*
X572647D01*
X576646Y348848D02*
Y342850D01*
X579645D01*
X580645Y343850D01*
Y347848D01*
X579645Y348848D01*
X576646D01*
X582644Y343850D02*
X583644Y342850D01*
X585643D01*
X586643Y343850D01*
Y347848D01*
X585643Y348848D01*
X583644D01*
X582644Y347848D01*
Y346849D01*
X583644Y345849D01*
X586643D01*
X239650Y349848D02*
Y343850D01*
X243649D01*
X249647Y349848D02*
X245648D01*
Y343850D01*
X249647D01*
X245648Y346849D02*
X247647D01*
X251646Y349848D02*
Y343850D01*
X254645D01*
X255645Y344850D01*
Y348848D01*
X254645Y349848D01*
X251646D01*
X257644Y348848D02*
X258644Y349848D01*
X260643D01*
X261643Y348848D01*
Y347849D01*
X260643Y346849D01*
X261643Y345849D01*
Y344850D01*
X260643Y343850D01*
X258644D01*
X257644Y344850D01*
Y345849D01*
X258644Y346849D01*
X257644Y347849D01*
Y348848D01*
X258644Y346849D02*
X260643D01*
X545150Y394348D02*
Y388350D01*
X549149D01*
X555147Y394348D02*
X551148D01*
Y388350D01*
X555147D01*
X551148Y391349D02*
X553147D01*
X557146Y394348D02*
Y388350D01*
X560145D01*
X561145Y389350D01*
Y393348D01*
X560145Y394348D01*
X557146D01*
X563144D02*
X567143D01*
Y393348D01*
X563144Y389350D01*
Y388350D01*
X255650Y402348D02*
Y396350D01*
X259649D01*
X265647Y402348D02*
X261648D01*
Y396350D01*
X265647D01*
X261648Y399349D02*
X263647D01*
X267646Y402348D02*
Y396350D01*
X270645D01*
X271645Y397350D01*
Y401348D01*
X270645Y402348D01*
X267646D01*
X277643D02*
X275643Y401348D01*
X273644Y399349D01*
Y397350D01*
X274644Y396350D01*
X276643D01*
X277643Y397350D01*
Y398349D01*
X276643Y399349D01*
X273644D01*
X503150Y428848D02*
Y422850D01*
X507149D01*
X513147Y428848D02*
X509148D01*
Y422850D01*
X513147D01*
X509148Y425849D02*
X511147D01*
X515146Y428848D02*
Y422850D01*
X518145D01*
X519145Y423850D01*
Y427848D01*
X518145Y428848D01*
X515146D01*
X525143D02*
X521144D01*
Y425849D01*
X523143Y426849D01*
X524143D01*
X525143Y425849D01*
Y423850D01*
X524143Y422850D01*
X522144D01*
X521144Y423850D01*
X306650Y437348D02*
Y431350D01*
X310649D01*
X316647Y437348D02*
X312648D01*
Y431350D01*
X316647D01*
X312648Y434349D02*
X314647D01*
X318646Y437348D02*
Y431350D01*
X321645D01*
X322645Y432350D01*
Y436348D01*
X321645Y437348D01*
X318646D01*
X327643Y431350D02*
Y437348D01*
X324644Y434349D01*
X328643D01*
X447150Y432348D02*
Y426350D01*
X451149D01*
X457147Y432348D02*
X453148D01*
Y426350D01*
X457147D01*
X453148Y429349D02*
X455147D01*
X459146Y432348D02*
Y426350D01*
X462145D01*
X463145Y427350D01*
Y431348D01*
X462145Y432348D01*
X459146D01*
X465144Y431348D02*
X466144Y432348D01*
X468143D01*
X469143Y431348D01*
Y430349D01*
X468143Y429349D01*
X467143D01*
X468143D01*
X469143Y428349D01*
Y427350D01*
X468143Y426350D01*
X466144D01*
X465144Y427350D01*
X360150Y433848D02*
Y427850D01*
X364149D01*
X370147Y433848D02*
X366148D01*
Y427850D01*
X370147D01*
X366148Y430849D02*
X368147D01*
X372146Y433848D02*
Y427850D01*
X375145D01*
X376145Y428850D01*
Y432848D01*
X375145Y433848D01*
X372146D01*
X382143Y427850D02*
X378144D01*
X382143Y431849D01*
Y432848D01*
X381143Y433848D01*
X379144D01*
X378144Y432848D01*
X404650Y396348D02*
Y390350D01*
X408649D01*
X414647Y396348D02*
X410648D01*
Y390350D01*
X414647D01*
X410648Y393349D02*
X412647D01*
X416646Y396348D02*
Y390350D01*
X419645D01*
X420645Y391350D01*
Y395348D01*
X419645Y396348D01*
X416646D01*
X422644Y390350D02*
X424644D01*
X423644D01*
Y396348D01*
X422644Y395348D01*
X414599Y345398D02*
X412599D01*
X413599D01*
Y340400D01*
X412599Y339400D01*
X411600D01*
X410600Y340400D01*
X416598Y345398D02*
Y339400D01*
X419597D01*
X420597Y340400D01*
Y344398D01*
X419597Y345398D01*
X416598D01*
X426595Y344398D02*
X425595Y345398D01*
X423596D01*
X422596Y344398D01*
Y340400D01*
X423596Y339400D01*
X425595D01*
X426595Y340400D01*
X296200Y359698D02*
X298199D01*
X297200D01*
Y353700D01*
X296200D01*
X298199D01*
X305197Y358698D02*
X304197Y359698D01*
X302198D01*
X301198Y358698D01*
Y354700D01*
X302198Y353700D01*
X304197D01*
X305197Y354700D01*
X311195Y353700D02*
X307196D01*
X311195Y357699D01*
Y358698D01*
X310195Y359698D01*
X308196D01*
X307196Y358698D01*
X423100Y293798D02*
X425099D01*
X424100D01*
Y287800D01*
X423100D01*
X425099D01*
X432097Y292798D02*
X431097Y293798D01*
X429098D01*
X428098Y292798D01*
Y288800D01*
X429098Y287800D01*
X431097D01*
X432097Y288800D01*
X434096Y287800D02*
X436096D01*
X435096D01*
Y293798D01*
X434096Y292798D01*
M02*
