G04*
G04 #@! TF.GenerationSoftware,Altium Limited,Altium Designer,18.0.7 (293)*
G04*
G04 Layer_Color=16711935*
%FSLAX25Y25*%
%MOIN*%
G70*
G01*
G75*
%ADD14C,0.09800*%
%ADD15R,0.09800X0.09800*%
%ADD16O,0.07300X0.10800*%
%ADD17R,0.07300X0.10800*%
%ADD18C,0.07800*%
%ADD19R,0.10800X0.16800*%
%ADD20R,0.16800X0.10800*%
%ADD21R,0.06800X0.09800*%
%ADD22O,0.06800X0.09800*%
%ADD23C,0.08800*%
D14*
X395500Y268000D02*
D03*
D15*
X375500D02*
D03*
D16*
X305000Y246500D02*
D03*
X421000Y375000D02*
D03*
X463500Y411000D02*
D03*
X376500Y412500D02*
D03*
X323000Y416000D02*
D03*
X519500Y407500D02*
D03*
X561500Y373000D02*
D03*
X272000Y381000D02*
D03*
X581000Y327500D02*
D03*
X256000Y328500D02*
D03*
X280000Y289500D02*
D03*
X555500Y283500D02*
D03*
X524500Y241500D02*
D03*
X333500Y212500D02*
D03*
X499000Y203500D02*
D03*
X461500Y172000D02*
D03*
X372500Y175500D02*
D03*
X416500Y144000D02*
D03*
D17*
X295000Y246500D02*
D03*
X411000Y375000D02*
D03*
X453500Y411000D02*
D03*
X366500Y412500D02*
D03*
X313000Y416000D02*
D03*
X509500Y407500D02*
D03*
X551500Y373000D02*
D03*
X262000Y381000D02*
D03*
X571000Y327500D02*
D03*
X246000Y328500D02*
D03*
X270000Y289500D02*
D03*
X545500Y283500D02*
D03*
X514500Y241500D02*
D03*
X323500Y212500D02*
D03*
X489000Y203500D02*
D03*
X451500Y172000D02*
D03*
X362500Y175500D02*
D03*
X406500Y144000D02*
D03*
D18*
X395000Y384000D02*
D03*
X360000D02*
D03*
X440500Y385500D02*
D03*
X475500D02*
D03*
X313500Y383500D02*
D03*
X348500D02*
D03*
X523500Y381000D02*
D03*
X488500D02*
D03*
X473000Y281500D02*
D03*
Y246500D02*
D03*
X524000Y360500D02*
D03*
X489000D02*
D03*
X314500Y290500D02*
D03*
X349500D02*
D03*
X401500Y230000D02*
D03*
X366500D02*
D03*
X314500Y280500D02*
D03*
X349500D02*
D03*
X314500Y270500D02*
D03*
X349500D02*
D03*
X436000Y182500D02*
D03*
X401000D02*
D03*
X409500Y203000D02*
D03*
X374500D02*
D03*
D19*
X415000Y311000D02*
D03*
X440000D02*
D03*
D20*
X425000Y331000D02*
D03*
D21*
X370500Y345000D02*
D03*
X457500Y279500D02*
D03*
D22*
X360500Y345000D02*
D03*
X350500D02*
D03*
X340500D02*
D03*
X330500D02*
D03*
X320500D02*
D03*
X310500D02*
D03*
X300500D02*
D03*
X370500Y315000D02*
D03*
X360500D02*
D03*
X350500D02*
D03*
X340500D02*
D03*
X330500D02*
D03*
X320500D02*
D03*
X310500D02*
D03*
X300500D02*
D03*
X447500Y279500D02*
D03*
X437500D02*
D03*
X427500D02*
D03*
X457500Y249500D02*
D03*
X447500D02*
D03*
X437500D02*
D03*
X427500D02*
D03*
D23*
X437000Y231500D02*
D03*
X457000D02*
D03*
X447000D02*
D03*
M02*
