G04*
G04 #@! TF.GenerationSoftware,Altium Limited,Altium Designer,18.0.7 (293)*
G04*
G04 Layer_Color=255*
%FSLAX25Y25*%
%MOIN*%
G70*
G01*
G75*
%ADD24C,0.09000*%
%ADD25R,0.09000X0.09000*%
%ADD26O,0.06500X0.10000*%
%ADD27R,0.06500X0.10000*%
%ADD28C,0.07000*%
%ADD29R,0.10000X0.16000*%
%ADD30R,0.16000X0.10000*%
%ADD31R,0.06000X0.09000*%
%ADD32O,0.06000X0.09000*%
%ADD33C,0.08000*%
D24*
X395500Y268000D02*
D03*
D25*
X375500D02*
D03*
D26*
X305000Y246500D02*
D03*
X421000Y375000D02*
D03*
X463500Y411000D02*
D03*
X376500Y412500D02*
D03*
X323000Y416000D02*
D03*
X519500Y407500D02*
D03*
X561500Y373000D02*
D03*
X272000Y381000D02*
D03*
X581000Y327500D02*
D03*
X256000Y328500D02*
D03*
X280000Y289500D02*
D03*
X555500Y283500D02*
D03*
X524500Y241500D02*
D03*
X333500Y212500D02*
D03*
X499000Y203500D02*
D03*
X461500Y172000D02*
D03*
X372500Y175500D02*
D03*
X416500Y144000D02*
D03*
D27*
X295000Y246500D02*
D03*
X411000Y375000D02*
D03*
X453500Y411000D02*
D03*
X366500Y412500D02*
D03*
X313000Y416000D02*
D03*
X509500Y407500D02*
D03*
X551500Y373000D02*
D03*
X262000Y381000D02*
D03*
X571000Y327500D02*
D03*
X246000Y328500D02*
D03*
X270000Y289500D02*
D03*
X545500Y283500D02*
D03*
X514500Y241500D02*
D03*
X323500Y212500D02*
D03*
X489000Y203500D02*
D03*
X451500Y172000D02*
D03*
X362500Y175500D02*
D03*
X406500Y144000D02*
D03*
D28*
X395000Y384000D02*
D03*
X360000D02*
D03*
X440500Y385500D02*
D03*
X475500D02*
D03*
X313500Y383500D02*
D03*
X348500D02*
D03*
X523500Y381000D02*
D03*
X488500D02*
D03*
X473000Y281500D02*
D03*
Y246500D02*
D03*
X524000Y360500D02*
D03*
X489000D02*
D03*
X314500Y290500D02*
D03*
X349500D02*
D03*
X401500Y230000D02*
D03*
X366500D02*
D03*
X314500Y280500D02*
D03*
X349500D02*
D03*
X314500Y270500D02*
D03*
X349500D02*
D03*
X436000Y182500D02*
D03*
X401000D02*
D03*
X409500Y203000D02*
D03*
X374500D02*
D03*
D29*
X415000Y311000D02*
D03*
X440000D02*
D03*
D30*
X425000Y331000D02*
D03*
D31*
X370500Y345000D02*
D03*
X457500Y279500D02*
D03*
D32*
X360500Y345000D02*
D03*
X350500D02*
D03*
X340500D02*
D03*
X330500D02*
D03*
X320500D02*
D03*
X310500D02*
D03*
X300500D02*
D03*
X370500Y315000D02*
D03*
X360500D02*
D03*
X350500D02*
D03*
X340500D02*
D03*
X330500D02*
D03*
X320500D02*
D03*
X310500D02*
D03*
X300500D02*
D03*
X447500Y279500D02*
D03*
X437500D02*
D03*
X427500D02*
D03*
X457500Y249500D02*
D03*
X447500D02*
D03*
X437500D02*
D03*
X427500D02*
D03*
D33*
X437000Y231500D02*
D03*
X457000D02*
D03*
X447000D02*
D03*
M02*
